<svg xmlns="http://www.w3.org/2000/svg" xmlns:xlink="http://www.w3.org/1999/xlink" width="64" zoomAndPan="magnify" viewBox="0 0 48 48" height="64" preserveAspectRatio="xMidYMid meet" version="1.0"><defs><clipPath id="039952a717"><path d="M 0.488281 0 L 47.507812 0 L 47.507812 47.019531 L 0.488281 47.019531 Z M 0.488281 0 " clip-rule="nonzero"/></clipPath><clipPath id="62d009aea1"><path d="M 15 5 L 46.871094 5 L 46.871094 44.535156 L 15 44.535156 Z M 15 5 " clip-rule="nonzero"/></clipPath><clipPath id="1d67da0aea"><path d="M 1.320312 4 L 16 4 L 16 44.535156 L 1.320312 44.535156 Z M 1.320312 4 " clip-rule="nonzero"/></clipPath><clipPath id="3552198325"><path d="M 14 5 L 46.871094 5 L 46.871094 9 L 14 9 Z M 14 5 " clip-rule="nonzero"/></clipPath><clipPath id="1dc28c485b"><path d="M 14 10 L 46.871094 10 L 46.871094 14 L 14 14 Z M 14 10 " clip-rule="nonzero"/></clipPath><clipPath id="e96efed14c"><path d="M 15 34 L 46.871094 34 L 46.871094 40 L 15 40 Z M 15 34 " clip-rule="nonzero"/></clipPath><clipPath id="314fb84817"><path d="M 14 7 L 16 7 L 16 44.535156 L 14 44.535156 Z M 14 7 " clip-rule="nonzero"/></clipPath><clipPath id="2dbffdccbf"><path d="M 1.320312 4 L 16 4 L 16 9 L 1.320312 9 Z M 1.320312 4 " clip-rule="nonzero"/></clipPath><clipPath id="65a773bf98"><path d="M 1.320312 9 L 16 9 L 16 14 L 1.320312 14 Z M 1.320312 9 " clip-rule="nonzero"/></clipPath><clipPath id="37c597a997"><path d="M 1.320312 31 L 16 31 L 16 40 L 1.320312 40 Z M 1.320312 31 " clip-rule="nonzero"/></clipPath><clipPath id="953070b1fe"><path d="M 1.320312 2.660156 L 46.871094 2.660156 L 46.871094 8 L 1.320312 8 Z M 1.320312 2.660156 " clip-rule="nonzero"/></clipPath></defs><g clip-path="url(#039952a717)"><path fill="#ffffff" d="M 0.488281 0 L 47.511719 0 L 47.511719 47.019531 L 0.488281 47.019531 Z M 0.488281 0 " fill-opacity="1" fill-rule="nonzero"/><path fill="#ffffff" d="M 0.488281 0 L 47.511719 0 L 47.511719 47.019531 L 0.488281 47.019531 Z M 0.488281 0 " fill-opacity="1" fill-rule="nonzero"/></g><g clip-path="url(#62d009aea1)"><path stroke-linecap="round" transform="matrix(0.07508, 0, 0, 0.0749497, -25.655151, -4.227539)" fill-opacity="1" fill="#dbad55" fill-rule="evenodd" stroke-linejoin="round" d="M 965.310263 129.214244 C 965.258235 129.214244 542.531881 154.647965 542.479853 154.647965 C 542.479853 154.700083 542.948104 649.458919 542.948104 649.511037 C 543.000132 649.511037 958.702725 576.545445 958.702725 576.545445 C 958.702725 576.493326 965.310263 129.266362 965.310263 129.214244 Z M 965.310263 129.214244 " stroke="#dbad55" stroke-width="1" stroke-opacity="1" stroke-miterlimit="4"/></g><g clip-path="url(#1d67da0aea)"><path stroke-linecap="round" transform="matrix(0.07508, 0, 0, 0.0749497, -25.655151, -4.227539)" fill-opacity="1" fill="#c69030" fill-rule="evenodd" stroke-linejoin="round" d="M 542.219714 154.387373 C 542.167686 154.387373 359.966124 113.26605 359.966124 113.26605 C 359.966124 113.318168 368.446665 529.274164 368.446665 529.326283 C 368.446665 529.326283 542.739992 649.563155 542.739992 649.563155 C 542.739992 649.511037 542.219714 154.439492 542.219714 154.387373 Z M 542.219714 154.387373 " stroke="#c69030" stroke-width="1" stroke-opacity="1" stroke-miterlimit="4"/></g><path stroke-linecap="round" transform="matrix(0.07508, 0, 0, 0.0749497, -25.655151, -4.227539)" fill-opacity="1" fill="#c69030" fill-rule="evenodd" stroke-linejoin="round" d="M 909.224231 201.137471 C 909.172203 201.137471 606.161952 224.121632 606.109925 224.121632 C 606.109925 224.173751 606.890342 575.346724 606.890342 575.346724 C 606.890342 575.346724 908.443813 529.430519 908.495841 529.430519 C 908.495841 529.378401 909.224231 201.189589 909.224231 201.137471 Z M 909.224231 201.137471 " stroke="#c69030" stroke-width="1" stroke-opacity="1" stroke-miterlimit="4"/><path stroke-linecap="round" transform="matrix(0.07508, 0, 0, 0.0749497, -25.655151, -4.227539)" fill-opacity="1" fill="#b3802f" fill-rule="evenodd" stroke-linejoin="round" d="M 511.887472 221.307245 C 511.887472 221.307245 384.159078 187.743073 384.10705 187.743073 C 384.10705 187.743073 390.19431 488.77826 390.19431 488.830379 C 390.19431 488.830379 511.731388 565.809079 511.731388 565.809079 C 511.731388 565.756961 511.887472 221.359364 511.887472 221.307245 Z M 511.887472 221.307245 " stroke="#b3802f" stroke-width="1" stroke-opacity="1" stroke-miterlimit="4"/><g clip-path="url(#3552198325)"><path stroke-linecap="round" transform="matrix(0.07508, 0, 0, 0.0749497, -25.655151, -4.227539)" fill="none" stroke-linejoin="round" d="M 963.905511 136.145975 C 823.534347 144.537018 683.111156 152.98018 542.739992 161.371223 " stroke="#a07026" stroke-width="4" stroke-opacity="1" stroke-miterlimit="4"/></g><g clip-path="url(#1dc28c485b)"><path stroke-linecap="round" transform="matrix(0.07508, 0, 0, 0.0749497, -25.655151, -4.227539)" fill="none" stroke-linejoin="round" d="M 962.969009 196.081998 C 823.014069 207.078955 683.111156 218.023794 543.156215 228.968633 " stroke="#a07026" stroke-width="4" stroke-opacity="1" stroke-miterlimit="4"/></g><g clip-path="url(#e96efed14c)"><path stroke-linecap="round" transform="matrix(0.07508, 0, 0, 0.0749497, -25.655151, -4.227539)" fill="none" stroke-linejoin="round" d="M 958.33853 520.674648 C 820.100509 542.303734 681.862487 563.932821 543.572438 585.561907 " stroke="#a07026" stroke-width="4" stroke-opacity="1" stroke-miterlimit="4"/></g><g clip-path="url(#314fb84817)"><path stroke-linecap="round" transform="matrix(0.07508, 0, 0, 0.0749497, -25.655151, -4.227539)" fill="none" stroke-linejoin="round" d="M 542.844048 161.16275 C 542.896076 323.61543 542.948104 486.06811 543.000132 648.52079 " stroke="#a07026" stroke-width="4" stroke-opacity="1" stroke-miterlimit="4"/></g><path stroke-linecap="round" transform="matrix(0.07508, 0, 0, 0.0749497, -25.655151, -4.227539)" fill="none" stroke-linejoin="round" d="M 607.462649 224.173751 C 607.566705 341.387763 607.618733 458.549658 607.722788 575.76367 " stroke="#a07026" stroke-width="4" stroke-opacity="1" stroke-miterlimit="4"/><path stroke-linecap="round" transform="matrix(0.07508, 0, 0, 0.0749497, -25.655151, -4.227539)" fill="none" stroke-linejoin="round" d="M 628.58596 222.401729 C 628.637988 339.042441 628.742043 455.683152 628.846099 572.323864 " stroke="#a07026" stroke-width="4" stroke-opacity="1" stroke-miterlimit="4"/><path stroke-linecap="round" transform="matrix(0.07508, 0, 0, 0.0749497, -25.655151, -4.227539)" fill="none" stroke-linejoin="round" d="M 679.521234 218.961923 C 679.833401 333.882731 680.09354 448.803539 680.405707 563.724348 " stroke="#a07026" stroke-width="4" stroke-opacity="1" stroke-miterlimit="4"/><path stroke-linecap="round" transform="matrix(0.07508, 0, 0, 0.0749497, -25.655151, -4.227539)" fill="none" stroke-linejoin="round" d="M 731.288953 214.479751 C 731.497065 328.306075 731.757204 442.080281 732.017343 555.906606 " stroke="#a07026" stroke-width="4" stroke-opacity="1" stroke-miterlimit="4"/><path stroke-linecap="round" transform="matrix(0.07508, 0, 0, 0.0749497, -25.655151, -4.227539)" fill="none" stroke-linejoin="round" d="M 783.889119 210.779353 C 784.149258 322.781537 784.461425 434.83584 784.773592 546.838025 " stroke="#a07026" stroke-width="4" stroke-opacity="1" stroke-miterlimit="4"/><path stroke-linecap="round" transform="matrix(0.07508, 0, 0, 0.0749497, -25.655151, -4.227539)" fill="none" stroke-linejoin="round" d="M 836.073061 207.339546 C 836.385228 317.673946 836.645368 428.008345 836.957535 538.342745 " stroke="#a07026" stroke-width="4" stroke-opacity="1" stroke-miterlimit="4"/><path stroke-linecap="round" transform="matrix(0.07508, 0, 0, 0.0749497, -25.655151, -4.227539)" fill="none" stroke-linejoin="round" d="M 888.10092 203.795503 C 888.309032 312.931182 888.517143 422.11898 888.673227 531.254659 " stroke="#a07026" stroke-width="4" stroke-opacity="1" stroke-miterlimit="4"/><path stroke-linecap="round" transform="matrix(0.07508, 0, 0, 0.0749497, -25.655151, -4.227539)" fill="none" stroke-linejoin="round" d="M 907.767451 201.241707 C 907.871507 310.325268 907.975562 419.356711 908.079618 528.388153 " stroke="#a07026" stroke-width="4" stroke-opacity="1" stroke-miterlimit="4"/><g clip-path="url(#2dbffdccbf)"><path stroke-linecap="round" transform="matrix(0.07508, 0, 0, 0.0749497, -25.655151, -4.227539)" fill="none" stroke-linejoin="round" d="M 543.208243 161.736051 C 482.647815 148.185298 422.03536 134.634545 361.474932 121.031674 " stroke="#a07026" stroke-width="4" stroke-opacity="1" stroke-miterlimit="4"/></g><g clip-path="url(#65a773bf98)"><path stroke-linecap="round" transform="matrix(0.07508, 0, 0, 0.0749497, -25.655151, -4.227539)" fill="none" stroke-linejoin="round" d="M 542.687965 228.551686 C 482.647815 212.916202 422.555638 197.280718 362.463461 181.645234 " stroke="#a07026" stroke-width="4" stroke-opacity="1" stroke-miterlimit="4"/></g><g clip-path="url(#37c597a997)"><path stroke-linecap="round" transform="matrix(0.07508, 0, 0, 0.0749497, -25.655151, -4.227539)" fill="none" stroke-linejoin="round" d="M 543.208243 585.718262 C 485.041097 548.818519 426.87395 511.918777 368.706804 475.019034 " stroke="#a07026" stroke-width="4" stroke-opacity="1" stroke-miterlimit="4"/></g><path stroke-linecap="round" transform="matrix(0.07508, 0, 0, 0.0749497, -25.655151, -4.227539)" fill="none" stroke-linejoin="round" d="M 511.783416 565.652724 C 511.887472 450.679797 512.043556 335.706871 512.147611 220.786063 " stroke="#a07026" stroke-width="4" stroke-opacity="1" stroke-miterlimit="4"/><path stroke-linecap="round" transform="matrix(0.07508, 0, 0, 0.0749497, -25.655151, -4.227539)" fill="none" stroke-linejoin="round" d="M 500.181204 558.564638 C 500.389315 445.051023 500.545399 331.537408 500.701482 218.023794 " stroke="#a07026" stroke-width="4" stroke-opacity="1" stroke-miterlimit="4"/><path stroke-linecap="round" transform="matrix(0.07508, 0, 0, 0.0749497, -25.655151, -4.227539)" fill="none" stroke-linejoin="round" d="M 479.786283 545.118122 C 479.578172 434.52313 479.37006 323.980258 479.161949 213.385267 " stroke="#a07026" stroke-width="4" stroke-opacity="1" stroke-miterlimit="4"/><path stroke-linecap="round" transform="matrix(0.07508, 0, 0, 0.0749497, -25.655151, -4.227539)" fill="none" stroke-linejoin="round" d="M 459.703529 532.505498 C 459.183251 423.995238 458.662972 315.484978 458.194722 206.974718 " stroke="#a07026" stroke-width="4" stroke-opacity="1" stroke-miterlimit="4"/><path stroke-linecap="round" transform="matrix(0.07508, 0, 0, 0.0749497, -25.655151, -4.227539)" fill="none" stroke-linejoin="round" d="M 438.736302 518.589917 C 437.851829 413.258872 436.967355 307.927827 436.082881 202.544664 " stroke="#a07026" stroke-width="4" stroke-opacity="1" stroke-miterlimit="4"/><path stroke-linecap="round" transform="matrix(0.07508, 0, 0, 0.0749497, -25.655151, -4.227539)" fill="none" stroke-linejoin="round" d="M 419.225855 506.081529 C 417.821103 402.730979 416.468379 299.380429 415.115654 196.081998 " stroke="#a07026" stroke-width="4" stroke-opacity="1" stroke-miterlimit="4"/><path stroke-linecap="round" transform="matrix(0.07508, 0, 0, 0.0749497, -25.655151, -4.227539)" fill="none" stroke-linejoin="round" d="M 398.622823 493.93797 C 396.957932 392.672151 395.29304 291.458451 393.628149 190.24475 " stroke="#a07026" stroke-width="4" stroke-opacity="1" stroke-miterlimit="4"/><path stroke-linecap="round" transform="matrix(0.07508, 0, 0, 0.0749497, -25.655151, -4.227539)" fill="none" stroke-linejoin="round" d="M 390.766616 489.195207 C 388.893613 388.919635 386.968583 288.644064 385.043552 188.316374 " stroke="#a07026" stroke-width="4" stroke-opacity="1" stroke-miterlimit="4"/><g clip-path="url(#953070b1fe)"><path stroke-linecap="round" transform="matrix(0.07508, 0, 0, 0.0749497, -25.655151, -4.227539)" fill-opacity="1" fill="#f2d086" fill-rule="evenodd" stroke-linejoin="round" d="M 721.351632 92.470856 C 721.299604 92.470856 360.070179 113.213932 360.018152 113.213932 C 360.018152 113.213932 542.583909 153.761954 542.583909 153.761954 C 542.635937 153.761954 965.362291 128.953652 965.362291 128.953652 C 965.362291 128.953652 721.351632 92.470856 721.351632 92.470856 Z M 721.351632 92.470856 " stroke="#f2d086" stroke-width="1" stroke-opacity="1" stroke-miterlimit="4"/></g><path fill="#dbad55" d="M 19.988281 12.570312 C 20.933594 12.496094 22.195312 12.386719 23.140625 12.324219 C 23.140625 12.324219 42.503906 32.074219 42.503906 32.078125 C 42.503906 33.070312 42.5 35.386719 42.5 35.386719 C 41.671875 35.515625 39.738281 35.8125 39.738281 35.8125 C 33.8125 29.90625 19.988281 16.132812 19.988281 16.132812 C 19.988281 15.0625 19.988281 12.570312 19.988281 12.570312 Z M 19.988281 12.570312 " fill-opacity="1" fill-rule="evenodd"/><path stroke-linecap="round" transform="matrix(0.07508, 0, 0, 0.0749497, -25.655151, -4.227539)" fill="none" stroke-linejoin="round" d="M 907.819479 484.400325 C 907.819479 484.348207 649.917382 220.838181 649.917382 220.838181 C 637.32664 221.672073 620.521642 223.131385 607.9309 224.121632 C 607.9309 224.121632 607.9309 257.373095 607.9309 271.653504 C 607.9309 271.653504 792.057493 455.422561 870.983755 534.225401 C 870.983755 534.225401 896.737545 530.264412 907.767451 528.544508 C 907.767451 528.544508 907.819479 497.638368 907.819479 484.400325 M 607.9309 224.121632 L 607.9309 224.121632 " stroke="#ab7930" stroke-width="4" stroke-opacity="1" stroke-miterlimit="4"/><path fill="#c69030" d="M 3.234375 9.796875 C 3.667969 9.90625 4.246094 10.066406 4.683594 10.164062 C 4.683594 10.164062 12.789062 32.042969 12.789062 32.042969 C 12.785156 33.894531 12.78125 38.207031 12.78125 38.207031 C 12.410156 37.96875 11.539062 37.417969 11.539062 37.417969 C 9.070312 30.308594 3.308594 13.71875 3.308594 13.71875 C 3.285156 12.542969 3.234375 9.796875 3.234375 9.796875 Z M 3.234375 9.796875 " fill-opacity="1" fill-rule="evenodd"/><path stroke-linecap="round" transform="matrix(0.07508, 0, 0, 0.0749497, -25.655151, -4.227539)" fill="none" stroke-linejoin="round" d="M 512.043556 483.93126 C 512.043556 483.93126 404.085748 192.016772 404.085748 192.016772 C 398.258628 190.713815 390.558505 188.576965 384.783412 187.117653 C 384.783412 187.117653 385.459775 223.756805 385.771942 239.444407 C 385.771942 239.444407 462.513034 460.790744 495.394641 555.646014 C 495.394641 555.646014 506.996853 562.994692 511.9395 566.173907 C 511.9395 566.173907 511.991528 508.635325 512.043556 483.93126 M 384.783412 187.117653 L 384.783412 187.117653 " stroke="#a5752b" stroke-width="3" stroke-opacity="1" stroke-miterlimit="4"/><path stroke-linecap="round" transform="matrix(0.07508, 0, 0, 0.0749497, -25.655151, -4.227539)" fill-opacity="1" fill="#c38f2c" fill-rule="evenodd" stroke-linejoin="round" d="M 731.965315 101.330964 C 731.965315 101.330964 688.209886 116.705857 688.209886 116.705857 C 688.209886 116.705857 846.218494 120.354136 846.218494 120.354136 C 846.218494 120.354136 732.017343 101.330964 731.965315 101.330964 Z M 731.965315 101.330964 " stroke="#c38f2c" stroke-width="1" stroke-opacity="1" stroke-miterlimit="4"/><path stroke-linecap="round" transform="matrix(0.07508, 0, 0, 0.0749497, -25.655151, -4.227539)" fill-opacity="1" fill="#deac49" fill-rule="evenodd" stroke-linejoin="round" d="M 732.953845 104.405942 C 732.953845 104.405942 825.615462 119.885072 825.615462 119.885072 C 825.563434 119.885072 699.447904 117.018566 699.395876 117.018566 C 699.395876 117.018566 732.953845 104.405942 732.953845 104.405942 Z M 732.953845 104.405942 " stroke="#deac49" stroke-width="1" stroke-opacity="1" stroke-miterlimit="4"/><path stroke-linecap="round" transform="matrix(0.07508, 0, 0, 0.0749497, -25.655151, -4.227539)" fill-opacity="1" fill="#c68f32" fill-rule="evenodd" stroke-linejoin="round" d="M 620.729753 115.507136 C 620.729753 115.507136 462.096811 112.06733 462.044783 112.06733 C 462.096811 112.06733 673.381946 99.506824 673.381946 99.506824 C 673.381946 99.506824 620.781781 115.507136 620.729753 115.507136 Z M 620.729753 115.507136 " stroke="#c68f32" stroke-width="1" stroke-opacity="1" stroke-miterlimit="4"/><path stroke-linecap="round" transform="matrix(0.07508, 0, 0, 0.0749497, -25.655151, -4.227539)" fill-opacity="1" fill="#deac4b" fill-rule="evenodd" stroke-linejoin="round" d="M 620.781781 115.559254 C 620.729753 115.559254 506.736714 113.057577 506.736714 113.057577 C 506.736714 113.057577 652.726886 105.865254 652.726886 105.865254 C 652.726886 105.865254 620.781781 115.559254 620.781781 115.559254 Z M 620.781781 115.559254 " stroke="#deac4b" stroke-width="1" stroke-opacity="1" stroke-miterlimit="4"/><path stroke-linecap="round" transform="matrix(0.07508, 0, 0, 0.0749497, -25.655151, -4.227539)" fill-opacity="1" fill="#c28c2c" fill-rule="evenodd" stroke-linejoin="round" d="M 549.399558 137.031986 C 549.34753 137.031986 425.41717 115.038072 425.365143 115.038072 C 425.41717 115.038072 597.005049 122.803695 597.005049 122.803695 C 597.005049 122.803695 549.399558 137.031986 549.399558 137.031986 Z M 549.399558 137.031986 " stroke="#c28c2c" stroke-width="1" stroke-opacity="1" stroke-miterlimit="4"/><path stroke-linecap="round" transform="matrix(0.07508, 0, 0, 0.0749497, -25.655151, -4.227539)" fill-opacity="1" fill="#deac4b" fill-rule="evenodd" stroke-linejoin="round" d="M 549.399558 137.031986 C 549.399558 137.031986 454.968994 120.302018 454.968994 120.302018 C 454.968994 120.302018 586.807589 125.826556 586.859617 125.826556 C 586.859617 125.826556 549.399558 137.031986 549.399558 137.031986 Z M 549.399558 137.031986 " stroke="#deac4b" stroke-width="1" stroke-opacity="1" stroke-miterlimit="4"/><path stroke-linecap="round" transform="matrix(0.07508, 0, 0, 0.0749497, -25.655151, -4.227539)" fill-opacity="1" fill="#c69030" fill-rule="evenodd" stroke-linejoin="round" d="M 669.271745 123.846061 C 669.323773 123.846061 810.57941 127.702814 810.57941 127.702814 C 810.527383 127.702814 636.59825 136.667158 636.546222 136.667158 C 636.546222 136.667158 669.271745 123.846061 669.271745 123.846061 Z M 669.271745 123.846061 " stroke="#c69030" stroke-width="1" stroke-opacity="1" stroke-miterlimit="4"/><path stroke-linecap="round" transform="matrix(0.07508, 0, 0, 0.0749497, -25.655151, -4.227539)" fill-opacity="1" fill="#deac49" fill-rule="evenodd" stroke-linejoin="round" d="M 669.479857 127.233749 C 669.531885 127.233749 750.435205 130.829911 750.435205 130.829911 C 750.435205 130.829911 651.061995 135.98962 651.061995 135.98962 C 651.061995 135.98962 669.479857 127.233749 669.479857 127.233749 Z M 669.479857 127.233749 " stroke="#deac49" stroke-width="1" stroke-opacity="1" stroke-miterlimit="4"/></svg>