<?xml version="1.0" encoding="UTF-8"?>
<svg viewBox="0 0 380 290" xmlns="http://www.w3.org/2000/svg" xmlns:xlink="http://www.w3.org/1999/xlink">
 <defs>
  <linearGradient id="a">
   <stop stop-color="#fff" offset="0"/>
   <stop stop-color="#fff" stop-opacity="0" offset="1"/>
  </linearGradient>
  <linearGradient id="b">
   <stop stop-color="#85bf85" offset="0"/>
   <stop stop-color="#85bf85" stop-opacity="0" offset="1"/>
  </linearGradient>
  <linearGradient id="f" x1="180.46" x2="225.1" gradientUnits="userSpaceOnUse" xlink:href="#a"/>
  <radialGradient id="c" cx="291.63" cy="433.59" r="13.795" gradientTransform="matrix(1.5082 0 0 2.8884 -200.37 -812.31)" gradientUnits="userSpaceOnUse" xlink:href="#a"/>
  <radialGradient id="d" cx="277.77" cy="432.07" r="8.5" gradientTransform="matrix(1.5082 0 0 4.5134 -200.37 -1517)" gradientUnits="userSpaceOnUse" xlink:href="#b"/>
  <radialGradient id="e" cx="260.15" cy="434.74" r="9.0156" gradientTransform="matrix(1.5082 0 0 2.2583 -200.37 -542.2)" gradientUnits="userSpaceOnUse" xlink:href="#b"/>
 </defs>
 <g transform="matrix(3.3828 -.5429 .5429 3.3828 -812.21 -1211.5)">
  <path d="m238.59 419.06-0.70706 11.01c-1.9192-1.3131-3.7373-3.3333-3.7373-5.8585 0-2.6262 2.0202-4.7474 4.4444-5.1514m1.7172 41.11 0.80806-11.212c1.5151 1.2121 3.5353 3.0303 3.5353 5.1514 0 2.9292-1.5151 5.2524-4.3434 6.0605m19.192-5.9595c0-8.7877-5.0504-13.636-11.515-17.879 0 0-3.7373-2.5252-5.7575-3.6363l0.90907-13.333c2.4242 0.70705 5.2524 2.3232 6.9696 4.2424l8.3837-7.4746c-3.2323-4.3434-9.1918-7.8787-14.444-9.0908l0.40404-5.6565-4.5454-0.40403-0.40403 5.5554c-11.01-0.101-20.101 6.5656-20.101 18.081 0 8.7877 5.5555 13.838 12.121 18.182 0 0 3.4343 2.4242 5.2524 3.4343l-1.0101 13.838c-2.8282-0.80806-6.0605-2.7272-8.4847-4.5454l-6.6666 10.505c3.7373 3.2323 9.3938 6.0605 14.242 6.8686l-0.40403 5.8585 4.5454 0.40403 0.40403-5.9595c10.707-0.60605 20.101-7.5756 20.101-18.99" fill="#008000"/>
  <path d="m224.34 451.83v-11.919h-15.151v-14.747h-12.929v14.747h-15.05v11.919h15.05v14.848h12.929v-14.848h15.151" fill="#008000"/>
  <path d="m197.02 425.94v14.704h-15.034v10.408h15.042v14.846h7.0147c-3.8488-4.0039-3.2048-9.5011-3.2048-15.553 0-8.4194 1.5748-18.008 8.342-21.766v-2.6393h-12.159z" fill="url(#e)" opacity=".9"/>
  <path d="m240.67 401.76-0.42417 5.5142c-11.01-0.101-20.077 5.8288-20.077 17.344 0 8.0588 4.6714 12.351 10.51 16.354-10.505-23.249 6.6244-29.956 15.129-32.944-0.6987-0.22139-1.3845-0.45363-2.0737-0.61268l0.37704-5.2785-3.4405-0.37704zm-13.008 55.283-5.7027 8.8133c3.7373 3.2322 8.8192 5.4602 13.668 6.2682l-0.51842 5.9855 3.2048 0.37704 0.42416-5.8441c0.84487-0.04782 1.6695-0.16319 2.4979-0.28277-3.1472-2.7875-5.8217-7.1122-7.6821-12.489-2.0969-0.71844-4.2679-1.6103-5.8912-2.8278z" fill="url(#d)"/>
  <path d="m238.59 419.06-0.70706 11.01c-1.9192-1.3131-3.7373-3.3333-3.7373-5.8585 0-2.6262 2.0202-4.7474 4.4444-5.1514m1.7172 41.11 0.80806-11.212c1.5151 1.2121 3.5353 3.0303 3.5353 5.1514 0 2.9292-1.5151 5.2524-4.3434 6.0605m19.192-5.9595c0-8.7877-5.0504-13.636-11.515-17.879 0 0-3.7373-2.5252-5.7575-3.6363l0.90907-13.333c2.4242 0.70705 5.2524 2.3232 6.9696 4.2424l8.3837-7.4746c-3.2323-4.3434-9.1918-7.8787-14.444-9.0908l0.40404-5.6565-4.5454-0.40403-0.40403 5.5554c-11.01-0.101-20.101 6.5656-20.101 18.081 0 8.7877 5.5555 13.838 12.121 18.182 0 0 3.4343 2.4242 5.2524 3.4343l-1.0101 13.838c-2.8282-0.80806-6.0605-2.7272-8.4847-4.5454l-6.6666 10.505c3.7373 3.2323 9.3938 6.0605 14.242 6.8686l-0.40403 5.8585 4.5454 0.40403 0.40403-5.9595c10.707-0.60605 20.101-7.5756 20.101-18.99" fill="none" stroke="url(#c)" stroke-width="1.5082"/>
  <path d="m224.34 451.83v-11.919h-15.151v-14.747h-12.929v14.747h-15.05v11.919h15.05v14.848h12.929v-14.848h15.151" fill="none" stroke="url(#f)" stroke-width="1.5082"/>
 </g>
</svg>
